<svg id="Layer_1" data-name="Layer 1" xmlns="http://www.w3.org/2000/svg" viewBox="0 0 295 270"><defs><style>.cls-1{fill:#0060ff;}</style></defs><title>icon</title><path class="cls-1" d="M95.81,89.34a47.78,47.78,0,0,0-23.33,5.89h0v22.83H52.73A47.46,47.46,0,0,0,49.67,135c0,26,19.84,45.64,46.15,45.64s46-19.62,46-45.64C141.79,109.39,121.6,89.34,95.81,89.34Zm0,69.43c-13.27,0-23.28-10.22-23.28-23.78,0-13.34,10.23-23.78,23.28-23.78,12.87,0,22.95,10.45,22.95,23.78C118.76,148.54,108.9,158.76,95.81,158.76ZM72.5,49.57V95.22H49.67V49.57Z"/><path class="cls-1" d="M176,174.78v45.66H153.21V174.78ZM245.33,135c0,26-19.77,45.64-46,45.64A47.78,47.78,0,0,1,176,174.75v-22.8H156.28a47.44,47.44,0,0,1-3.07-17c0-26,19.84-45.65,46.15-45.65C225.14,89.34,245.33,109.39,245.33,135Zm-23,0c0-13.34-10.08-23.78-22.95-23.78-13.05,0-23.28,10.45-23.28,23.78,0,13.56,10,23.78,23.28,23.78C212.44,158.76,222.3,148.54,222.3,135Z"/></svg>