<svg id="Layer_1" data-name="Layer 1" xmlns="http://www.w3.org/2000/svg" viewBox="0 0 1100 270"><defs><style>.cls-1{fill:#0060ff;}</style></defs><title>logo</title><path class="cls-1" d="M300,180.63c-21.4,0-33.19-12.67-33.19-35.68V112.37h-20.1v-21h20.1V68.47h22.86V91.33h29.07v21H289.67v32.58c0,11.36,4.4,13.65,11.49,13.65a35.87,35.87,0,0,0,11.55-2.35l5.83-2.1,3.46,22-4.07,1.39A54.73,54.73,0,0,1,300,180.63Z"/><path class="cls-1" d="M370.57,89.89c25,0,42.59,18.12,42.77,44.06a38,38,0,0,1-.33,5.76,17.17,17.17,0,0,1-.82,3.7l-62.84,0c2.9,10.11,11.08,16.27,21.89,16.27,8.19,0,14.83-2.24,17.3-7.06l.32-.64h22.83a15.25,15.25,0,0,1-.66,2.52c-5,15.11-21.16,25.61-39.79,25.61-25.94,0-44.76-19-44.76-45.09C326.48,109.28,345.44,89.89,370.57,89.89Zm-21.4,37h41.75c0-6.74-6.34-16.89-20.36-16.89C358.29,110,350.9,118.43,349.17,126.88Z"/><path class="cls-1" d="M567.29,180.63c-22.83,0-38.17-16.21-38.17-40.33v-49H552v48.3c0,12.16,6.43,19.13,17.63,19.13,7.26,0,14.72-3.83,20.12-10.28V91.33H612.6v87.31H589.74v-5.34C583,177.77,575.39,180.63,567.29,180.63Z"/><path class="cls-1" d="M802.73,178.64H779.87V130c0-12.12-6.26-18.8-17.63-18.8-7.29,0-15.25,2.9-20.13,8v59.43H719.25V49.57h22.86V95a45.78,45.78,0,0,1,22.45-5.65c23.19,0,38.17,15.7,38.17,40Z"/><path class="cls-1" d="M938.92,178.64H916.05V91.33h22.86v7.39c5.31-5.55,15.49-9.22,24.61-9.22h5.12v22.07l-5,.13a30,30,0,0,0-24.74,13.21Z"/><path class="cls-1" d="M96.15,89.34a47.78,47.78,0,0,0-23.33,5.89h0v22.83H53.06A47.46,47.46,0,0,0,50,135c0,26,19.84,45.64,46.15,45.64s46-19.62,46-45.64C142.12,109.39,121.93,89.34,96.15,89.34Zm0,69.43c-13.27,0-23.28-10.22-23.28-23.78,0-13.34,10.23-23.78,23.28-23.78,12.87,0,22.95,10.45,22.95,23.78C119.09,148.54,109.23,158.76,96.15,158.76ZM72.83,49.57V95.22H50V49.57Z"/><path class="cls-1" d="M448.27,174.78v45.66H425.44V174.78ZM517.57,135c0,26-19.77,45.64-46,45.64a47.78,47.78,0,0,1-23.32-5.88v-22.8H428.51a47.44,47.44,0,0,1-3.07-17c0-26,19.84-45.65,46.15-45.65C497.37,89.34,517.57,109.39,517.57,135Zm-23,0c0-13.34-10.08-23.78-22.95-23.78-13.05,0-23.28,10.45-23.28,23.78,0,13.56,10,23.78,23.28,23.78C484.67,158.76,494.53,148.54,494.53,135Z"/><path class="cls-1" d="M215.38,91.33v55c-5.25,6.43-12.53,10.25-19.63,10.25-11.86,0-18.13-6.62-18.13-19.13V91.33H154.76v46.81c0,24.4,15.18,40.16,38.67,40.16a44.11,44.11,0,0,0,22-5.76v4.79c0,12.39-7.27,19.79-19.46,19.79-10.28,0-17.68-4.83-19.64-12.61H152.86l.13.87c2.94,20,20.19,33.44,42.93,33.44,25.71,0,42.32-16.29,42.32-41.49v-86Z"/><path class="cls-1" d="M860.34,89.89c25,0,42.59,18.12,42.77,44.06a28.17,28.17,0,0,1-.42,5.74l-.74,3.71-62.84,0c2.9,10.11,11.08,16.27,21.89,16.27,8.19,0,14.83-2.24,17.3-7.06l.32-.64h22.83a15.25,15.25,0,0,1-.66,2.52c-5,15.11-21.16,25.61-39.79,25.61-25.94,0-44.76-19-44.76-45.09C816.25,109.28,835.2,89.89,860.34,89.89Zm-21.4,37H880.7c0-6.74-6.34-16.89-20.36-16.89C848.05,110,840.67,118.43,838.94,126.88Z"/><path class="cls-1" d="M678.14,126.06l-16.79-2.48c-10-1.75-9.26-6-9.26-7.37,0-3.85,5.29-6.34,13.48-6.34,14.8,0,16.26,6.79,16.65,9.42h22.08s0-.31,0-.71c-1.18-18.74-15.64-29.24-38.68-29.24-22.08,0-36.34,11-36.34,28,0,9.73,4.72,22.14,27.22,26l17.36,2.81c5.57,1,8.4,3.2,8.4,6.58,0,5.29-8.07,7.17-15,7.17-13.19,0-17.31-5.19-18.89-9.88H626c2.55,19.44,17.46,30.58,40.93,30.58,22.89,0,37.67-11.27,37.67-28.7C704.57,141.81,700.64,129.76,678.14,126.06Z"/><path class="cls-1" d="M1023.56,126.06l-16.79-2.48c-10-1.75-9.26-6-9.26-7.37,0-3.85,5.29-6.34,13.48-6.34,14.8,0,16.26,6.79,16.65,9.42h22.08s0-.31,0-.71C1048.49,99.84,1034,89.34,1011,89.34c-22.08,0-36.34,11-36.34,28,0,9.73,4.72,22.14,27.22,26l17.36,2.81c5.57,1,8.4,3.2,8.4,6.58,0,5.29-8.07,7.17-15,7.17-13.19,0-17.31-5.19-18.89-9.88H971.38c2.55,19.44,17.46,30.58,40.93,30.58,22.89,0,37.67-11.27,37.67-28.7C1050,141.81,1046.06,129.76,1023.56,126.06Z"/></svg>